<?xml version="1.0" standalone="no"?>
<!DOCTYPE svg PUBLIC "-//W3C//DTD SVG 1.1//EN" "http://www.w3.org/Graphics/SVG/1.1/DTD/svg11.dtd" >
<svg xmlns="http://www.w3.org/2000/svg">
<metadata>
Created by FontForge 20120731 at Thu Dec 17 01:17:42 2015
 By Ads
</metadata>
<defs>
<font id="iconfont" horiz-adv-x="1024" >
  <font-face 
    font-family="iconfont"
    font-weight="500"
    font-stretch="normal"
    units-per-em="1024"
    panose-1="2 0 6 3 0 0 0 0 0 0"
    ascent="896"
    descent="-128"
    x-height="792"
    bbox="0 -224 1209 896"
    underline-thickness="50"
    underline-position="-100"
    unicode-range="U+0078-E632"
  />
<missing-glyph horiz-adv-x="374" 
d="M34 0v682h272v-682h-272zM68 34h204v614h-204v-614z" />
    <glyph glyph-name=".notdef" horiz-adv-x="374" 
d="M34 0v682h272v-682h-272zM68 34h204v614h-204v-614z" />
    <glyph glyph-name=".null" horiz-adv-x="0" 
 />
    <glyph glyph-name="nonmarkingreturn" horiz-adv-x="341" 
 />
    <glyph glyph-name="x" unicode="x" horiz-adv-x="1001" 
d="M281 543q-27 -1 -53 -1h-83q-18 0 -36.5 -6t-32.5 -18.5t-23 -32t-9 -45.5v-76h912v41q0 16 -0.5 30t-0.5 18q0 13 -5 29t-17 29.5t-31.5 22.5t-49.5 9h-133v-97h-438v97zM955 310v-52q0 -23 0.5 -52t0.5 -58t-10.5 -47.5t-26 -30t-33 -16t-31.5 -4.5q-14 -1 -29.5 -0.5
t-29.5 0.5h-32l-45 128h-439l-44 -128h-29h-34q-20 0 -45 1q-25 0 -41 9.5t-25.5 23t-13.5 29.5t-4 30v167h911zM163 247q-12 0 -21 -8.5t-9 -21.5t9 -21.5t21 -8.5q13 0 22 8.5t9 21.5t-9 21.5t-22 8.5zM316 123q-8 -26 -14 -48q-5 -19 -10.5 -37t-7.5 -25t-3 -15t1 -14.5
t9.5 -10.5t21.5 -4h37h67h81h80h64h36q23 0 34 12t2 38q-5 13 -9.5 30.5t-9.5 34.5q-5 19 -11 39h-368zM336 498v228q0 11 2.5 23t10 21.5t20.5 15.5t34 6h188q31 0 51.5 -14.5t20.5 -52.5v-227h-327z" />
    <glyph glyph-name="uniE600" unicode="&#xe600;" 
d="M512 812q-139 0 -257 -68.5t-186.5 -186.5t-68.5 -257t68.5 -257t186.5 -186.5t257 -68.5t257 68.5t186.5 186.5t68.5 257t-68.5 257t-186.5 186.5t-257 68.5zM512 -139q-89 0 -170.5 35t-140 93.5t-93.5 140t-35 170.5t35 170.5t93.5 140t140 93.5t170.5 35
q72 0 138.5 -22t120.5 -63t95 -95t63 -120.5t22 -138.5q0 -89 -35 -170.5t-93.5 -140t-140 -93.5t-170.5 -35zM228 16q36 13 91.5 34t161.5 69.5t134.5 77t74 126.5t76 178.5t30.5 82.5q-13 -4 -35 -12.5t-81.5 -32t-108 -45t-96.5 -47t-66.5 -44t-43.5 -65t-48 -100
t-44 -104.5t-33 -84zM460 352l104 -104q11 -11 -47.5 -43.5t-121 -59t-64.5 -26.5q3 7 8 19.5t19.5 46t28 61.5t28.5 56t27 42t18 8z" />
    <glyph glyph-name="uniE601" unicode="&#xe601;" 
d="M512 800q-104 0 -199 -40.5t-163.5 -109t-109 -163.5t-40.5 -199t40.5 -199t109 -163.5t163.5 -109t199 -40.5t199 40.5t163.5 109t109 163.5t40.5 199t-40.5 199t-109 163.5t-163.5 109t-199 40.5zM512 -173q-94 0 -179 36.5t-147 98.5t-98.5 147t-36.5 179q0 42 7.5 83
t21.5 78t34 71.5t45.5 64.5t55.5 55.5t64.5 45.5t71.5 34t78 21.5t83 7.5q94 0 179 -36.5t147 -98.5t98.5 -147t36.5 -179t-36.5 -179t-98.5 -147t-147 -98.5t-179 -36.5zM260 540l177 -327l336 -186l-186 336zM512 214q-31 0 -52.5 21.5t-21.5 52.5t21.5 52.5t52.5 21.5
t52.5 -21.5t21.5 -52.5q0 -20 -10 -37t-27 -27t-37 -10z" />
    <glyph glyph-name="uniE602" unicode="&#xe602;" 
d="M484 458q-43 0 -79.5 -21t-57.5 -57.5t-21 -79.5t21 -79.5t57.5 -57.5t79.5 -21q65 0 111.5 46.5t46.5 111.5q0 43 -21.5 79.5t-58 57.5t-78.5 21zM484 174q-52 0 -89 37t-37 89t37 89t89 37t89 -37t37 -89q0 -34 -17 -63t-46 -46t-63 -17zM829 312q-24 48 -61 88
t-81.5 68t-96.5 43t-106 15q-110 0 -203.5 -58t-141.5 -156q-6 -12 0 -24q24 -48 60.5 -88t81 -68t97 -43t106.5 -15q43 0 85 9.5t80.5 28t72 44.5t61 59.5t46.5 72.5q5 11 0 24zM484 127q-91 0 -169.5 46.5t-121.5 126.5q43 79 121.5 126t169.5 47q60 0 115.5 -21
t101 -60.5t74.5 -91.5q-29 -53 -74.5 -92t-101 -60t-115.5 -21zM544 325q-5 12 -14.5 21t-21.5 14t-24 5q-7 0 -11.5 -4.5t-4.5 -11t4.5 -11.5t11.5 -5q22 0 30 -20l1 -1q2 -7 2 -12q0 -22 -21 -31q-13 -5 -25 0q-21 9 -21 31q0 4 -2 8t-5.5 6t-8 2t-8 -2t-5.5 -6t-2 -8v-6
q0 -3 0.5 -5.5t1.5 -5.5t1.5 -5.5t1.5 -5.5l4 -4l2 -6q2 -2 3.5 -4t3.5 -4q3 -3 6.5 -5.5t7.5 -5t8 -3.5q11 -5 24 -5t25 4l1 1q11 4 21 14q19 19 19 46q0 6 -1 12t-4 12v1z" />
    <glyph glyph-name="uniE603" unicode="&#xe603;" 
d="M503 290zM453 290q0 11 4 20t10.5 16t16 11t19.5 4q21 0 36 -15t15 -36t-15 -35.5t-36 -14.5q-14 0 -25.5 6.5t-18 18.5t-6.5 25zM829 617q-86 86 -201.5 116.5t-231 0t-201.5 -116.5t-116.5 -201.5t0 -231t116.5 -201.5t201.5 -116.5t231 0t201.5 116.5
q64 65 97.5 148.5t33.5 168.5t-33.5 168.5t-97.5 148.5zM785 27q-74 -74 -173.5 -100t-199 0t-173.5 100t-100 173.5t0 199t100 173.5q45 44 100.5 72t114 36t117 0t114 -36t100.5 -72q74 -74 100 -173.5t0 -199t-100 -173.5zM500 -36zM487 -36q0 5 3.5 9t9 4t9 -4t3.5 -9
q0 -3 -1.5 -6t-4.5 -4.5t-6 -1.5q-6 0 -9.5 3.5t-3.5 8.5zM637 167q2 1 4 3t3.5 4.5t1.5 5.5l107 328q3 9 -1 17t-13 12q-10 12 -25 8l-325 -106q-8 -2 -13 -8.5t-5 -14.5q-2 -3 -3 -6l-107 -323q-4 -15 7 -25q3 -5 7.5 -9t10 -5t11.5 0l326 109q9 2 14 10zM339 127l85 258
l250 81l-83 -255zM863 287q0 5 -3.5 8.5t-8.5 3.5q-2 0 -4.5 -1.5t-4.5 -3.5t-2 -5q-4 -130 -96 -221q-42 -43 -95.5 -67t-111.5 -28v-23q41 3 80 15t76 34t67 53q96 95 103 229v5v1z" />
    <glyph glyph-name="uniE604" unicode="&#xe604;" 
d="M512 811q-86 0 -165 -34t-136.5 -91.5t-91.5 -136.5t-34 -165q0 -115 57.5 -213.5t156 -156t213.5 -57.5t213.5 57.5t156 156t57.5 213.5t-57.5 213.5t-156 156t-213.5 57.5zM512 0q-158 0 -271 113t-113 271t113 271t271 113t271 -113t113 -271t-113 -271t-271 -113z
M512 341q9 0 16.5 3.5t13.5 9.5t9.5 13.5t3.5 16.5q0 18 -12.5 30.5t-30.5 12.5t-30.5 -12.5t-12.5 -30.5t12.5 -30.5t30.5 -12.5zM723 617q-6 0 -8 -3l-276 -108q-16 -7 -28 -19t-18 -28l-109 -276q-5 -11 1.5 -20t17.5 -9l8 2l276 109q33 13 47 46l108 276q5 11 -1 20.5
t-18 9.5zM593 326q-3 -8 -9 -14t-14 -9l-229 -92l92 228q7 17 24 24l228 92z" />
    <glyph glyph-name="uniE605" unicode="&#xe605;" 
d="M757 426h-204v205q0 17 -12 29.5t-30 12.5t-30 -12.5t-12 -29.5v-205h-205q-17 0 -29.5 -12t-12.5 -30t12.5 -30t29.5 -12h205v-204q0 -18 12 -30.5t30 -12.5t30 12.5t12 30.5v204h204q12 0 22 5.5t15.5 15t5.5 21.5q0 18 -12.5 30t-30.5 12z" />
    <glyph glyph-name="uniE606" unicode="&#xe606;" 
d="M757 342h-493q-8 0 -16 3t-13.5 9t-9 13.5t-3.5 16.5q0 18 12.5 30t29.5 12h493q12 0 22 -5.5t15.5 -15t5.5 -21.5q0 -18 -12.5 -30t-30.5 -12z" />
    <glyph glyph-name="uniE607" unicode="&#xe607;" 
d="M710 447h-17v-428h-56v428h-94v-428h-56v428h-94v-428h-56v428h-36h-77v-448q0 -30 22.5 -52t54.5 -22h409q16 0 30 6t24.5 16t16.5 23.5t6 28.5v448q0 1 -9 1t-30.5 -0.5t-37.5 -0.5zM824 581h-168v46q0 13 -13.5 24.5t-30.5 17.5t-31 6h-150q-24 0 -49.5 -14.5
t-25.5 -33.5v-46h-169q-15 0 -26.5 -11t-11.5 -26.5t11.5 -26.5t26.5 -11h637q10 0 19 5t14 14t5 19q0 4 -1 8.5t-3 8t-4.5 7t-6 6t-7 4t-8 2.5t-8.5 1zM581 581h-150v19h150v-19z" />
    <glyph glyph-name="uniE608" unicode="&#xe608;" 
d="M954 317l-185 185q-7 7 -16.5 7t-16.5 -7l-38 -37q-14 -14 -2 -30q1 -2 2 -3l82 -82h-372q-10 0 -16.5 -6.5t-6.5 -16.5v-53q0 -5 2 -9t5 -7t7 -5t9 -2h372l-82 -82q-7 -6 -7 -16t7 -16l38 -38q6 -7 16 -7t16 7l148 148l38 37q6 7 6 16.5t-6 16.5zM635 748h-500
q-29 0 -49.5 -20.5t-20.5 -49.5v-755q0 -19 9.5 -35t25.5 -25.5t35 -9.5h500q29 0 49.5 20.5t20.5 49.5v98q0 10 -7 16.5t-17 6.5h-50q-5 0 -9 -2t-7.5 -5t-5 -7t-1.5 -9v-37q0 -15 -10.5 -25t-24.5 -10h-377q-15 0 -25 10.5t-10 24.5v634q0 9 4.5 17t12.5 13t18 5h377
q9 0 17 -4.5t13 -12.5t5 -18v-38q0 -10 6.5 -16.5t16.5 -6.5h50q4 0 7.5 1t6.5 3t5 5t3.5 6.5t1.5 7.5v98q0 42 -37 61q-16 9 -33 9z" />
    <glyph glyph-name="uniE609" unicode="&#xe609;" 
d="M938 319q1 -5 -1 -11l-73 -322q-1 -6 -5 -11q-4 -8 -9 -15t-11.5 -13t-14.5 -11q-25 -16 -54 -16l-469 1q-3 -1 -5 -1t-5 1h-125l-5 -1q-9 0 -17 4.5t-12.5 12.5t-4.5 17v406q0 14 10 24t24 10q1 0 2 -0.5t2 -0.5l112 1q78 6 132 62t56 135v8q0 20 7.5 38.5t21 31.5
t31.5 21t38 8q35 0 61.5 -21.5t34.5 -54.5q3 -13 5 -25.5t3 -25.5t1 -27q0 -60 -20 -116l189 -1h5q53 -2 81 -47q18 -28 15 -61zM195 -12h67v338h-67v-338zM866 344q-10 17 -29 16v0h-239q-7 0 -13 2.5t-10.5 7t-7 11t-2.5 13.5q0 8 3 15q20 38 29 82q1 2 1.5 6t1.5 17.5
t1 29.5q0 12 -1 25.5t-2 20.5l-2 7v1q0 9 -4 16t-11.5 11.5t-15.5 4.5q-14 0 -23 -9.5t-9 -22.5v-1v-1v-3q0 -2 -1 -8v-12q-1 -6 -2 -14.5t-2 -16.5q-3 -15 -8 -31q-22 -65 -72.5 -112.5t-117.5 -64.5v-346h440h5q7 1 12 4q9 6 13 15l70 310q1 4 1 7v6q0 4 -1.5 7.5
t-3.5 6.5z" />
    <glyph glyph-name="uniE60A" unicode="&#xe60a;" 
d="M753 618q21 -15 40 -32t35 -36q4 -5 7.5 -9t6.5 -9l8 -8l6 -10l6 -8l6 -10t6 -9.5t5.5 -9.5t5.5 -10q12 -22 20.5 -45.5t15.5 -47.5q12 -50 12 -100q0 -22 -2 -43.5t-6.5 -42t-10.5 -40t-15 -38.5q-33 -77 -90 -134t-133 -90q-20 -9 -39.5 -15t-40 -10t-42 -6.5
t-42.5 -2.5q-87 0 -163.5 33.5t-134 90.5t-90.5 134q-16 38 -24.5 79t-8.5 85q0 50 12 97.5t33.5 91t53.5 81t71 67.5q6 4 11 6.5t11 4t11 1.5h12q24 -4 39 -24q8 -10 10.5 -21t1 -23t-7.5 -22t-16 -18q-59 -43 -90.5 -106t-31.5 -135q0 -31 5.5 -60.5t17.5 -56.5
q24 -55 64.5 -96t95.5 -65q19 -8 38 -13.5t39 -8t41 -2.5q62 0 117 24t95.5 65t64.5 96q12 27 18 56.5t6 60.5q0 24 -3.5 47.5t-11 46.5t-19.5 44q-33 66 -94 108q-21 14 -25 39q-1 6 -1 11.5t1 11.5t3.5 11.5t5.5 10.5q15 19 39 24q8 1 16 0.5t15 -3t14 -7.5v0zM512 271
q-25 0 -42.5 17.5t-17.5 41.5v357q0 25 17.5 43t42.5 18t42.5 -18t17.5 -43v-357q0 -24 -17.5 -41.5t-42.5 -17.5v0zM512 271z" />
    <glyph glyph-name="uniE60B" unicode="&#xe60b;" 
d="M219 -55h586v-73h-586v73zM901 457h-206v439h-366v-439h-205q-8 0 -14 -3.5t-9.5 -10t-3.5 -13.5q0 -4 1 -7.5t2.5 -6.5t4.5 -6l390 -390q2 -2 5 -3.5t6 -2.5t6 -1q10 0 17 7l393 394q3 3 4.5 7t1.5 9q1 11 -7 19t-20 8zM512 107l-277 277h167v439h220v-439h167z" />
    <glyph glyph-name="uniE60C" unicode="&#xe60c;" 
d="M512 821q-93 0 -158.5 -65.5t-65.5 -158.5q0 -61 30 -112.5t81.5 -81.5t112.5 -30q93 0 158.5 65.5t65.5 158.5q0 46 -17.5 87.5t-47.5 71.5t-71.5 47.5t-87.5 17.5zM512 437q-19 0 -37 4.5t-33.5 12t-29.5 18.5t-25 25t-19 30t-12 34t-4 36q0 66 47 113t113 47
q33 0 62.5 -12.5t51 -34t34 -51t12.5 -62.5q0 -43 -21.5 -80t-58.5 -58.5t-80 -21.5zM959 19q-8 114 -69.5 209.5t-161.5 151t-216 55.5q-91 0 -173.5 -35.5t-142.5 -95t-95.5 -142t-36.5 -173.5v-1v-1v0q1 -18 9.5 -32t23 -22.5t31.5 -8.5h2h1h1h671q13 0 22.5 9.5
t9.5 22.5t-9.5 22.5t-22.5 9.5h-644q-14 0 -19 1t-10 6.5t-3.5 18.5t7.5 37q23 137 130 228.5t248 91.5q150 0 260 -101.5t122 -249.5q2 -19 2 -31v-35q1 -13 10 -21.5t22 -8.5t22 8.5t10 21.5z" />
    <glyph glyph-name="uniE60D" unicode="&#xe60d;" horiz-adv-x="1210" 
d="M0 160q0 -153 109 -263q110 -109 263 -109h279q45 0 93 14v172h-465q-25 0 -46.5 12.5t-34 34t-12.5 46.5v466q0 38 27.5 65.5t65.5 27.5h465v172q-11 4 -106 7q-94 4 -179 5l-87 2q-153 0 -263 -110q-109 -109 -109 -262v-280zM558 160v280h279v186l372 -326l-372 -326
v186h-279z" />
    <glyph glyph-name="uniE60E" unicode="&#xe60e;" 
d="M992 454l-390 404q-19 19 -42.5 28.5t-47.5 9.5q-51 0 -90 -38l-390 -404q-41 -48 -26 -96q0 -4 6.5 -12.5t22 -17t35.5 -8.5h58v-314q0 -54 35 -94t87 -40h64h102v70v256v15v13q0 4 0.5 10.5t2.5 9t5.5 5.5t9.5 4t14 1h64h64q8 0 14 -1t9.5 -4t5.5 -5.5t2.5 -9
t0.5 -10.5v-13v-15v-256v-70h102h64q52 0 87 40t35 94v314h58q20 0 35.5 8.5t22 17t6.5 12.5q14 49 -26 96zM954 384h-52h-32h-38v-378q0 -29 -17 -49.5t-41 -20.5h-102v262q0 122 -96 122h-64h-64q-96 0 -96 -122v-262h-102q-23 0 -40.5 22.5t-17.5 47.5v378h-38h-32h-52v6
q0 3 1 5t3.5 5t4 4.5t4.5 5.5l391 403q4 9 15.5 14t22.5 5q26 0 45 -19l390 -403q0 -4 3.5 -13.5t3.5 -12.5z" />
    <glyph glyph-name="uniE60F" unicode="&#xe60f;" 
d="M805 -128h-586q-76 0 -121 58q-29 39 -30 85v328q0 59 44.5 101t106.5 42h586q24 0 47 -7t41.5 -20.5t32.5 -31t22 -39.5t8 -45v-328q0 -59 -44.5 -101t-106.5 -42zM219 418q-34 0 -58 -22t-24 -53v-328q0 -31 24 -53t58 -22h586q22 0 41 10t30 27.5t11 37.5v328
q0 31 -24 53t-58 22h-586zM717 418q-14 0 -24 10t-10 24v205q0 71 -50 121t-121 50q-28 0 -54 -9t-47 -24.5t-36.5 -36.5t-24.5 -47t-9 -54v-205q0 -14 -10 -24t-24 -10t-24 10t-10 24v205q0 99 70 169t169 70t169 -70t70 -169v-205q0 -14 -10 -24t-24 -10z" />
    <glyph glyph-name="uniE610" unicode="&#xe610;" 
d="M653 429q26 17 47.5 39.5t36.5 49t23 58t8 64.5q0 106 -75 181t-181 75t-181 -75t-75 -181q0 -27 5 -52t15 -48t24 -43.5t32 -37.5t39 -30q-135 -39 -221 -140t-86 -225q0 -49 23.5 -84t61.5 -55.5t98.5 -32.5t121.5 -16t143 -4q70 0 120.5 2.5t105.5 9t92 20t68.5 34
t46.5 52.5t15 74q0 82 -39.5 156.5t-109 128.5t-158.5 80zM320 640q0 82 55 137t137 55t137 -55t55 -137t-55 -137t-137 -55t-137 55t-55 137zM512 -64q-87 0 -150 5t-119.5 18t-85.5 39.5t-29 65.5q0 134 112.5 227t271.5 93t271.5 -93t112.5 -227q0 -39 -29 -65.5
t-85.5 -39.5t-119.5 -18t-150 -5z" />
    <glyph glyph-name="uniE611" unicode="&#xe611;" 
d="M734 860q-65 0 -123.5 -31t-99.5 -85q-41 54 -99.5 85t-124.5 31q-58 0 -111 -25t-91.5 -67t-61.5 -100t-23 -122q0 -37 7 -70.5t21.5 -65t25 -50t29.5 -48.5q26 -40 65 -86t82.5 -88.5t83 -79t78.5 -69t55.5 -45.5t26.5 -21q17 -13 37 -13t37 13q14 11 35.5 28.5
t75 63.5t100 90t98 101.5t81.5 105.5q19 30 29.5 48.5t25.5 50t22 65t7 70.5q0 85 -38.5 157.5t-105 114.5t-144.5 42zM886 352q-87 -137 -333 -338q-41 -34 -42 -34q-11 9 -30 24t-71.5 60t-98 88t-96 99t-79.5 101q-24 37 -37 60.5t-24 60t-11 73.5q0 101 65.5 172.5
t157.5 71.5q68 0 123 -40t82 -105v0q1 -4 4 -7.5t6.5 -5.5t8.5 -2q15 0 19 15q8 19 18 35.5t22 31t26.5 27t30.5 22t33 16t36 10t38 3.5q93 0 158.5 -71.5t65.5 -172.5q0 -28 -5.5 -54t-17 -51.5t-22 -43.5t-27.5 -45z" />
    <glyph glyph-name="uniE612" unicode="&#xe612;" 
d="M896 736q0 -14 -9 -23t-23 -9h-704q-14 0 -23 9t-9 23t9 23t23 9h704q14 0 23 -9t9 -23zM896 96q0 -14 -9 -23t-23 -9h-704q-14 0 -23 9t-9 23t9 23t23 9h704q14 0 23 -9t9 -23zM896 416q0 -14 -9 -23t-23 -9h-704q-14 0 -23 9t-9 23t9 23t23 9h704q14 0 23 -9t9 -23z
" />
    <glyph glyph-name="uniE613" unicode="&#xe613;" 
d="M646 422q55 35 88.5 93.5t33.5 124.5q0 106 -75 181t-181 75t-181 -75t-75 -181q0 -66 33.5 -124.5t88.5 -93.5q-141 -48 -227.5 -181t-86.5 -305q0 -14 9 -23t23 -9t23 9t9 23q0 187 112.5 317.5t271.5 130.5t271.5 -130.5t112.5 -317.5q0 -14 9 -23t23 -9t23 9t9 23
q0 172 -86.5 305t-227.5 181zM320 640q0 82 55 137t137 55t137 -55t55 -137t-55 -137t-137 -55t-137 55t-55 137z" />
    <glyph glyph-name="uniE614" unicode="&#xe614;" 
d="M896 -128h-768q-29 0 -46.5 17.5t-17.5 46.5v448q0 29 17.5 46.5t46.5 17.5h64v160q0 120 84 204t204 84h64q120 0 204 -84t84 -204v-160h64q29 0 46.5 -17.5t17.5 -46.5v-448q0 -29 -17.5 -46.5t-46.5 -17.5zM768 608q0 91 -66.5 157.5t-157.5 66.5h-64
q-91 0 -157.5 -66.5t-66.5 -157.5v-160h512v160zM896 320q0 29 -17.5 46.5t-46.5 17.5h-640q-29 0 -46.5 -17.5t-17.5 -46.5v-320q0 -29 17.5 -46.5t46.5 -17.5h640q29 0 46.5 17.5t17.5 46.5v320zM448 256q0 29 17.5 46.5t46.5 17.5t46.5 -17.5t17.5 -46.5q0 -17 -16 -65
t-32 -87l-16 -40q-64 154 -64 192z" />
    <glyph glyph-name="uniE615" unicode="&#xe615;" 
d="M949 736h-874q-11 0 -20.5 -2.5t-17.5 -6.5t-14.5 -10.5t-11 -14.5t-7 -18t-2.5 -21v-582q0 -22 9 -38.5t25.5 -25.5t38.5 -9h874q16 0 29.5 5t23 14.5t15 23.5t5.5 30v582q0 11 -2.5 21t-7 18t-11 14.5t-14.5 10.5t-17.5 6.5t-20.5 2.5zM876 663h8q2 0 6.5 -2t7.5 -5
q-15 -15 -15 -22q-371 -480 -742 0q-3 3 -5.5 7t-4.5 8t-5 7q7 7 22 7h728zM949 154q0 -13 -3.5 -24.5t-10 -20.5t-15 -15.5t-20 -9.5t-24.5 -3h-728q-11 0 -20.5 2t-17.5 6.5t-14.5 11t-11 14.5t-7 18t-2.5 21v436v15q437 -568 874 0v-15v-436z" />
    <glyph glyph-name="uniE616" unicode="&#xe616;" 
d="M536 -117q-43 0 -117.5 52.5t-147.5 126.5q-28 27 -54.5 58t-59.5 76.5t-53 94t-20 88.5q1 69 21.5 124.5t54 90.5t75 54t86.5 19q41 0 79.5 -15t71 -43t57.5 -67q37 57 91.5 89t116.5 32q44 0 84.5 -17t75 -50.5t55.5 -89t21 -125.5q1 -41 -20.5 -91t-56 -97
t-62.5 -79.5t-57 -61.5q-61 -62 -131.5 -115.5t-109.5 -53.5zM321 607q-33 0 -63.5 -14t-56.5 -41t-41.5 -71.5t-16.5 -101.5q0 -49 45 -122t125 -154q71 -71 136 -115.5t87 -45.5q22 1 83.5 49.5t127.5 115t116.5 144.5t50.5 130q0 55 -16 99t-41.5 70.5t-56 40t-63.5 13.5
q-38 0 -73 -16.5t-62.5 -47.5t-45.5 -73l-27 -64l-28 64q-28 66 -76 103t-104 37z" />
    <glyph glyph-name="uniE617" unicode="&#xe617;" 
d="M845 154l-58 115v179q0 57 -23.5 110t-66 93t-95.5 59q-4 19 -16.5 35.5t-32 26t-41.5 9.5q-34 0 -59.5 -22t-30.5 -55q-82 -29 -133.5 -99.5t-51.5 -156.5v-179l-58 -115q-10 -11 0 -32q14 -13 26 -13h614q13 0 26 13q2 1 3 4t1.5 6t0 6.5t-1.5 7.5t-3 8zM422 77
q0 -39 26 -64.5t64 -25.5t64 25.5t26 64.5h-180z" />
    <glyph glyph-name="uniE618" unicode="&#xe618;" 
d="M819 109h-614q-5 0 -8.5 1t-7 3t-5.5 3.5t-5 5.5q-10 10 0 32l58 115v179q0 86 52 160t133 102q5 30 31 50.5t59 20.5q13 0 25.5 -4t23.5 -10.5t19.5 -16t14 -21.5t7.5 -25q54 -19 96 -57.5t65.5 -92t23.5 -112.5v-180l58 -115q10 -10 0 -32q-3 -6 -6 -7.5t-10 0t-10 1.5
zM256 166h512l-38 77q0 3 -3.5 6.5t-3.5 6.5v192q0 73 -44.5 132t-115.5 73q-11 5 -17 14t-2 18v6q0 10 -9 18t-23 8q-32 0 -32 -26v-6q0 -4 -0.5 -7.5t-2 -7t-3.5 -6.5t-4.5 -5.5t-6.5 -4t-9 -1.5q-68 -20 -114 -77t-46 -128v-186q0 -6 -6 -12zM422 77q0 -39 26 -64.5
t64 -25.5t64 25.5t26 64.5h-180z" />
    <glyph glyph-name="uniE619" unicode="&#xe619;" 
d="M742 51q-12 0 -23.5 2.5t-23 7.5t-22.5 12t-20 17l-160 160q-123 -35 -230 47q-11 8 -20 17q-57 57 -71 134t20 154q11 18 26 19q19 0 25 -7l115 -115l71 71l-115 108q-12 13 -13 26q0 16 19 26q72 33 151.5 19.5t136.5 -71.5q48 -48 65.5 -115t-1.5 -134l160 -160
q13 -13 21.5 -27.5t12.5 -30.5t4 -32q0 -51 -38 -89.5t-90 -38.5zM499 314q3 0 13 -3.5t13 -3.5l173 -173q2 -2 5 -4.5t6 -4.5t6 -3.5t6 -2.5t6.5 -2t7 -1.5t7.5 -0.5q26 0 45 19q19 20 19 45q0 26 -19 45l-173 173q-9 4 -10 15.5t4 16.5q9 26 10.5 53.5t-4.5 53.5t-19 51
t-32 47q-33 33 -78 46.5t-88 4.5l83 -83q14 -15 14 -35.5t-14 -35.5l-90 -89q-14 -15 -35 -15t-35 15l-83 83q-10 -44 4 -88.5t47 -78.5q39 -38 92 -50.5t106 6.5h13z" />
    <glyph glyph-name="uniE61A" unicode="&#xe61a;" 
d="M890 467q-2 5 -4.5 9.5t-6 8t-7.5 6t-8.5 4.5t-9 3t-9.5 1l-211 13l-77 205q-5 14 -18 21.5t-27 7.5t-27 -7.5t-18 -21.5l-77 -205l-211 -6q-14 0 -27 -9t-18 -23q-9 -36 13 -58l173 -134l-58 -212q-9 -31 20 -51q28 -19 57 0l173 122l179 -122q7 -6 26 -6q11 0 16 1t9 5
q30 20 20 51l-58 212l173 134q10 10 13.5 23t-0.5 28z" />
    <glyph glyph-name="uniE61B" unicode="&#xe61b;" 
d="M717 13q-19 0 -26 6l-179 122l-179 -122q-29 -19 -58 0q-29 20 -19 51l64 212l-173 134q-10 10 -13.5 23t0.5 28q5 14 18 23t27 9l211 13l77 205q4 11 13 18.5t20.5 9t23 0t20.5 -9t13 -18.5l77 -205l217 -6q29 0 42 -26l3 -6q5 -15 0 -28.5t-19 -23.5l-173 -140l58 -212
q9 -31 -20 -51q-2 0 -10 -3t-15 -3zM512 211q13 0 19 -6l167 -115l-58 192q0 12 0.5 17.5t3.5 11.5t9 9l160 128h-205q-10 0 -18 8t-8 18l-70 185l-70 -192q0 -3 -4 -7.5t-10 -8t-12 -3.5l-205 -6l160 -128q6 0 9 -4.5t3.5 -8.5t0.5 -13l-58 -192l167 115h19z" />
    <glyph glyph-name="uniE61C" unicode="&#xe61c;" 
d="M371 442zM320 442q0 7 2 13.5t5 12t8 10.5t10.5 8t12 5t13.5 2q21 0 36 -15t15 -36q0 -7 -1.5 -14t-5 -12.5t-8 -10t-10.5 -8t-12.5 -5.5t-13.5 -2q-21 0 -36 15t-15 37zM512 442zM461 441.5q0 21.5 15 36.5t36 15t36 -15t15 -36q0 -14 -7 -26t-18.5 -19t-25.5 -7
q-21 0 -36 15t-15 36.5zM653 442zM602 442q0 14 6.5 25.5t18.5 18.5t26 7q10 0 19.5 -4t16.5 -11t11 -16.5t4 -19.5q0 -7 -2 -14t-5 -12.5t-8 -10t-10.5 -8t-12 -5.5t-13.5 -2q-21 0 -36 15t-15 37zM378 0h-13q-19 10 -19 32v128q-100 38 -159 117t-59 171q0 134 112.5 227
t271.5 93t271.5 -93t112.5 -227q0 -85 -50 -157.5t-135 -116t-186 -46.5l-128 -122q-7 -6 -19 -6zM512 704q-134 0 -227 -75t-93 -181q0 -76 52 -139.5t140 -97.5q19 -9 19 -32v-77l83 77q7 13 26 13q134 0 227 75t93 181t-93 181t-227 75z" />
    <glyph glyph-name="uniE61D" unicode="&#xe61d;" 
d="M512 781q-47 0 -92 -10.5t-84.5 -29.5t-73.5 -46t-61 -61t-46 -73.5t-29.5 -84.5t-10.5 -92q0 -110 53.5 -201.5t144.5 -143.5t199 -52q107 0 198.5 53.5t145 145t53.5 198.5q0 108 -52 199t-143.5 144.5t-201.5 53.5zM307 122q39 38 83 38q44 4 67 35t23 61v13
q0 3 -3 12.5t-3 12.5l-13 7q-3 3 -8 9t-17 24.5t-21 38.5t-17 49t-8 58q0 15 1 25.5t7.5 30.5t18 32.5t36.5 23t59 10.5t59 -10.5t36.5 -23t18 -32.5t7.5 -30.5t1 -25.5q0 -29 -7.5 -58t-18 -50t-20.5 -37.5t-18 -25.5l-7 -8l-6 -7q-13 -12 -13 -25v-7q0 -33 24 -62t72 -34
q56 -11 83 -38q-46 -36 -98 -56.5t-107 -20.5q-121 1 -211 71zM768 166q-49 49 -122 58q-11 0 -18.5 6t-13 15.5t-6.5 10.5q1 2 11 15t18.5 25t20 33.5t20 43t14.5 50t6 57.5q0 86 -50 136t-136 50t-136 -50t-50 -136q0 -42 11 -82.5t27.5 -69t29 -45.5t22.5 -27
q0 -8 -9 -18t-29 -14q-75 -11 -122 -58q-76 88 -77 218q0 91 45.5 168t122 121t165.5 44q88 0 165 -45.5t122.5 -122.5t45.5 -165q0 -131 -77 -218z" />
    <glyph glyph-name="uniE61E" unicode="&#xe61e;" 
d="M640 480h-256q-14 0 -23 9t-9 23t9 23t23 9h256q14 0 23 -9t9 -23t-9 -23t-23 -9zM576 352h-192q-14 0 -23 9t-9 23t9 23t23 9h192q14 0 23 -9t9 -23t-9 -23t-23 -9zM378 0h-13q-19 10 -19 32v128q-100 38 -159 117t-59 171q0 134 112.5 227t271.5 93t271.5 -93
t112.5 -227q0 -85 -50 -157.5t-135 -116t-186 -46.5l-128 -122q-7 -6 -19 -6zM512 704q-134 0 -227 -75t-93 -181q0 -76 52 -139.5t140 -97.5q19 -9 19 -32v-77l83 77q7 13 26 13q134 0 227 75t93 181t-93 181t-227 75z" />
    <glyph glyph-name="uniE61F" unicode="&#xe61f;" 
d="M416 704q91 0 157.5 -66.5t66.5 -157.5t-66.5 -157.5t-157.5 -66.5t-157.5 66.5t-66.5 157.5t66.5 157.5t157.5 66.5zM416 768q-120 0 -204 -84t-84 -204t84 -204t204 -84t204 84t84 204t-84 204t-204 84zM832 32h-6q-2 0 -6.5 0.5t-7.5 2t-6 3.5l-192 192q-9 10 -9 23
t9 22q7 7 15 9t16 0t14 -9l192 -192q10 -9 10 -22t-10 -23q-1 -6 -19 -6z" />
    <glyph glyph-name="uniE620" unicode="&#xe620;" 
d="M333 646q28 0 58.5 -12.5t50.5 -31.5l25 -26l45 -45l45 45l25 26q45 44 109 44q13 0 26 -3t32 -9q34 -20 53 -46t24 -63q10 -73 -39 -122l-275 -281l-275 281q-55 55 -45 122q9 63 77 109q38 12 64 12zM333 710q-25 0 -48 -4.5t-42 -14.5q-65 -34 -95.5 -95t-20 -125.5
t58.5 -112.5l281 -281q20 -19 45 -19q7 0 14.5 2t14 6.5t9.5 10.5l282 281q18 18 30.5 39.5t20 43.5t9 46t-2 47.5t-12.5 46t-23 42.5t-34.5 37.5t-45.5 30.5q-39 19 -89 19q-43 0 -83.5 -17t-70.5 -47l-19 -25l-26 25q-14 15 -32 26.5t-37.5 20t-41 13t-42.5 4.5z" />
    <glyph glyph-name="uniE621" unicode="&#xe621;" 
d="M781 691q-41 22 -86 22.5t-85 -17t-72 -50.5l-26 -25l-26 25q-31 32 -73.5 49t-87 16t-82.5 -20q-65 -34 -95.5 -95t-20 -125.5t58.5 -112.5l32 -32l153 -153l103 -103q19 -19 41.5 -19t41.5 19l102 103l154 153l32 32q44 48 53 112.5t-21.5 125.5t-95.5 95z" />
    <glyph glyph-name="uniE622" unicode="&#xe622;" 
d="M512 896q-138 0 -256 -69t-187 -187t-69 -256t69 -256t187 -187t256 -69t256 69t187 187t69 256t-69 256t-187 187t-256 69zM512 -64q-187 0 -317.5 130.5t-130.5 317.5t130.5 317.5t317.5 130.5t317.5 -130.5t130.5 -317.5t-130.5 -317.5t-317.5 -130.5zM512 736
q-91 0 -157.5 -66.5t-66.5 -157.5t66.5 -157.5t157.5 -66.5t157.5 66.5t66.5 157.5t-66.5 157.5t-157.5 66.5zM512 352q-67 0 -113.5 46.5t-46.5 113.5t46.5 113.5t113.5 46.5t113.5 -46.5t46.5 -113.5t-46.5 -113.5t-113.5 -46.5zM205 45q24 106 110.5 174.5t196.5 68.5
t196.5 -68.5t110.5 -174.5h64q-11 51 -35.5 98t-60.5 85t-79.5 65.5t-95.5 43t-106 15.5q-139 0 -244 -86t-134 -221h77z" />
    <glyph glyph-name="uniE623" unicode="&#xe623;" 
d="M512 768q-158 0 -271 -113t-113 -271t113 -271t271 -113t271 113t113 271t-113 271t-271 113zM672 269q10 -10 10 -22.5t-10 -22.5t-22.5 -10t-22.5 10l-115 115l-115 -115q-10 -10 -22.5 -10t-22.5 10t-10 22.5t10 22.5l115 115l-115 115q-10 10 -10 22.5t10 22.5
q5 5 10.5 7.5t11.5 2.5t12 -2.5t11 -7.5l115 -115l115 115q10 10 22.5 10t22.5 -10q6 -6 8.5 -14t0 -16t-8.5 -15l-115 -115z" />
    <glyph glyph-name="uniE624" unicode="&#xe624;" 
d="M512 768q-158 0 -271 -113t-113 -271t113 -271t271 -113t271 113t113 271t-113 271t-271 113zM512 64q-134 0 -227 93t-93 227t93 227t227 93t227 -93t93 -227t-93 -227t-227 -93zM672 544q-10 10 -22.5 10t-22.5 -10l-115 -115l-115 115q-10 10 -22.5 10t-22.5 -10
q-5 -5 -7.5 -10.5t-2.5 -11.5t2.5 -12t7.5 -11l115 -115l-115 -115q-5 -5 -7.5 -11t-2.5 -12t2.5 -11.5t7.5 -10.5t10.5 -7.5t11.5 -2.5t12 2.5t11 7.5l115 115l115 -115q10 -10 22.5 -10t22.5 10q4 4 6.5 8.5t3 9t0 9.5t-3 9.5t-6.5 8.5l-115 115l115 115q10 10 10 22.5
t-10 22.5z" />
    <glyph glyph-name="uniE625" unicode="&#xe625;" 
d="M762 588q-40 0 -80 10t-68 28q-30 18 -50.5 28t-60 20t-81.5 10t-88.5 -16t-71.5 -32l-25 -16v-512q1 1 3.5 2.5t10.5 6.5t16 9.5t20.5 11t24 11.5t26 9.5t27.5 7.5q31 6 70 3t73 -11t62 -18l38 -20q37 -19 73 -28.5t93 -15.5q40 -3 85 13.5t70 32.5t25 18v512
q-5 -8 -29 -23.5t-70.5 -29.5t-92.5 -11zM122 748q-24 0 -41 -16t-17 -35v-845h109v845q0 12 -7.5 24t-19.5 19.5t-24 7.5z" />
    <glyph glyph-name="uniE626" unicode="&#xe626;" 
d="M512 204q-119 0 -203.5 84.5t-84.5 203.5t84.5 203.5t203.5 84.5q78 0 144.5 -38.5t105 -105t38.5 -144.5q0 -58 -23 -111.5t-61.5 -92t-92 -61.5t-111.5 -23zM512 716q-93 0 -158.5 -65.5t-65.5 -158.5t65.5 -158.5t158.5 -65.5t158.5 65.5t65.5 158.5t-65.5 158.5
t-158.5 65.5zM896 -180q-6 0 -12 2.5t-10.5 7t-7 10t-2.5 12.5q0 115 -40 193.5t-118.5 118.5t-193.5 40q-173 0 -262.5 -89.5t-89.5 -262.5q0 -13 -9.5 -22.5t-22.5 -9.5t-22.5 9.5t-9.5 22.5q0 198 109 307t307 109t307 -109t109 -307q0 -24 -22 -31q-6 -1 -10 -1z" />
    <glyph glyph-name="uniE627" unicode="&#xe627;" 
d="M704 32h-6q-3 0 -6.5 1.5t-6.5 4.5l-154 103l-77 -77q-5 -5 -15.5 -8t-16.5 2q-19 9 -19 32v140q0 13 7 20l243 262q9 10 22 10t23 -10q4 -5 6.5 -10.5t2.5 -11.5t-2.5 -12t-6.5 -11l-237 -256v-51l45 38q17 17 38 7l141 -90l109 531l-538 -262l122 -77q6 -3 10 -11
t3 -18t-7 -16q-5 -9 -20 -13t-25 1l-166 108q-13 14 -13 26q0 6 2 11t6 8t11 7l640 320q22 10 32 0q13 -7 13 -32l-128 -640q0 -16 -19 -26h-13z" />
    <glyph glyph-name="uniE628" unicode="&#xe628;" 
d="M851 730q-21 10 -32 0l-640 -320q-9 0 -14 -8t-5 -18t4 -18t9 -8l153 -96q4 -1 7 -2t6 -1.5t6.5 0t6.5 1.5t6.5 3.5t6.5 5.5l339 307l13 -6l-307 -327q-5 -4 -6 -8.5t-1 -10.5v-141q0 -22 19 -32q17 -8 32 7l77 76l154 -102q6 -6 19 -6h13q18 10 19 25l128 640
q-2 32 -13 39z" />
    <glyph glyph-name="uniE629" unicode="&#xe629;" 
d="M904 10l-75 132v277q0 28 -6.5 57.5t-20 58t-32.5 55.5q-60 83 -153 118h-1q-6 2 -14 4v10q0 37 -26.5 63.5t-63.5 26.5t-63.5 -26.5t-26.5 -63.5v-9q-8 -2 -12 -4h-1q-46 -16 -86 -46.5t-70 -71.5q-60 -82 -60 -172v-277l-80 -141q-16 -27 0 -55q7 -13 20 -20t28 -7h198
q9 -56 52.5 -93.5t100.5 -37.5t100.5 37.5t52.5 93.5h198q23 0 39 16t16 39q0 21 -14 36zM512 765q17 0 29.5 -12t13.5 -29q-8 1 -14 2q-4 1 -7 0h-1l-1 1q-4 0 -6.5 0.5t-6.5 1t-8 0.5q-7 0 -20 -2q-2 0 -2 -1h-7q-6 -1 -13 -2q1 17 13.5 29t29.5 12zM512 -165
q-19 0 -36.5 6.5t-31 17.5t-23.5 26.5t-14 33.5h210q-9 -36 -38 -60t-67 -24zM863 -34h-702q-5 0 -7 4q-1 2 -1 4t1 4l84 147l3 11v283q0 50 24 100t66 88.5t94 57.5q29 9 57 14h3h2h4q2 0 3.5 0.5t3.5 0.5q9 1 13 1t14 -1q6 -1 10 -1q2 -1 5 0q12 -2 27.5 -6t22 -6t11.5 -4
q78 -29 129.5 -99t51.5 -145v-283v-4l2 -4q0 -2 1 -3l80 -141q1 -3 4 -5q2 -2 2 -5q-2 -7 -8 -8z" />
    <glyph glyph-name="uniE62A" unicode="&#xe62a;" 
d="M572 90v330q0 11 6 18.5t15 9t18 0t15 -9t6 -18.5v-330q0 -11 -6 -18.5t-15 -9t-18 0t-15 9t-6 18.5v0zM392 90v330q0 8 3.5 14t8.5 9.5t11.5 5t13 0t11.5 -5t8.5 -9.5t3.5 -14v-330q0 -18 -15 -25.5t-30 0t-15 25.5v0zM902 570h-150v60q0 14 -4.5 28t-13 25t-19.5 19
t-24.5 12.5t-27.5 4.5h-301q-37 0 -63.5 -26t-26.5 -63v-60h-150q-18 0 -25.5 -15t0 -30t25.5 -15h780q18 0 25.5 15t0 30t-25.5 15v0zM332 630q0 7 4 14t11 11.5t15 4.5h301q6 0 11.5 -2.5t9 -6.5t6 -9.5t2.5 -11.5v-60h-360v60zM722 -119h-420q-24 0 -45 12t-33 32.5
t-12 44.5v450q0 8 4 15t11 11t15 4t15 -4t11 -11t4 -15v-450q0 -11 9 -20.5t21 -9.5h420q12 0 21 9.5t9 20.5v449q0 11 6 18.5t15 9.5t18 0t15 -9.5t6 -18.5v-449q0 -24 -12 -44.5t-33 -32.5t-45 -12zM722 -119z" />
    <glyph glyph-name="uniE62B" unicode="&#xe62b;" 
d="M560 543q14 29 31 50q27 34 61.5 54.5t76.5 26.5q19 2 36.5 1t34 -4.5t32.5 -10t31 -16t29 -21.5q58 -49 79 -134q11 -44 9 -90q-1 -42 -24 -91q-29 -61 -85 -126q-111 -128 -260 -228q-20 -13 -42 -24q-9 -4 -18 1q-29 15 -65 40q-111 79 -200 171q-71 72 -109 138
q-13 23 -22.5 46t-13.5 46q-4 24 -1 62q1 11 2.5 22t4 22.5t5.5 22t7 21t9 21.5q15 30 34.5 53.5t45.5 41.5t57 28q65 21 127 -0.5t102 -78.5q14 -19 23 -39q1 -1 2 -3q0 -1 1 -2z" />
    <glyph glyph-name="uniE62C" unicode="&#xe62c;" 
d="M857 -140h-690q-38 0 -64.5 26.5t-26.5 63.5v605q0 37 26.5 63.5t64.5 26.5h135v-60h-120q-19 0 -32.5 -13t-13.5 -32v-575q0 -18 13.5 -31.5t32.5 -13.5h660q7 0 12.5 2t10.5 4.5t9 7t7 9.5t5 10.5t2 11.5v575q0 19 -13.5 32t-32.5 13h-120v60h135q38 0 64.5 -26
t26.5 -64v-605q0 -37 -26.5 -63.5t-64.5 -26.5v0zM354 249q7 8 11 4l118 -120v597q0 5 3 8t8 3h38q4 0 7.5 -3.5t3.5 -7.5v-598l118 121q5 2 11 -4l30 -31q3 -3 4.5 -6.5t-0.5 -4.5l-163 -166q-10 -11 -12 -11h-37q-1 0 -12 11l-162 167q-4 3 4 11l30 30v0zM354 249z" />
    <glyph glyph-name="uniE62D" unicode="&#xe62d;" 
d="M489 781h21q108 0 185 -77t77 -187v-146q0 -29 15 -67t36.5 -71.5t43 -63t36.5 -47.5t15 -17h-838q3 3 8.5 9.5t20.5 25.5t29 37.5t31 45.5t29 50.5t20.5 50t8.5 47.5v146q0 110 76.5 187t185.5 77zM604 63v-74q0 -40 -27.5 -67.5t-66.5 -27.5h-21q-39 0 -66.5 27.5
t-27.5 67.5v74h209zM499 866q26 0 44.5 -18.5t18.5 -45t-18.5 -45t-44.5 -18.5t-44 18.5t-18 45.5q0 10 3 19.5t8.5 17.5t13.5 14t17.5 9t19.5 3z" />
    <glyph glyph-name="uniE62E" unicode="&#xe62e;" 
d="M512 743q-90 0 -172 -35.5t-141.5 -94.5t-95 -141.5t-35.5 -172.5t35.5 -172.5t95 -142t141.5 -94.5t172.5 -35t172.5 35t141.5 94.5t94.5 142t35 172.5q0 72 -22.5 140t-63.5 122.5t-95.5 95.5t-122 63.5t-140.5 22.5zM468 77l-136 392l34 12l137 -391zM625 315
q-16 -22 -50 -42t-60 -29l-26 -10l-84 253q50 -3 88.5 -2t66.5 5t45.5 8.5t26.5 7.5l8 4q-5 -21 -16 -50.5t-20 -48.5l-8 -19q31 -18 56 -34t34 -23l10 -8z" />
    <glyph glyph-name="uniE62F" unicode="&#xe62f;" 
d="M511 8q-117 0 -212 43q-78 35 -137 97q-19 19 -36 41t-26.5 38t-17.5 31.5t-10.5 21.5t-3.5 10l-5 12l6 11q4 9 12 23t35 50t58 67q63 61 137 96q94 43 200 43q105 0 198 -43q74 -35 137 -96q32 -30 59.5 -66t35.5 -50t13 -23l7 -14l-7 -14q-4 -8 -12.5 -22t-35.5 -50
t-58 -67q-63 -61 -138 -96q-31 -14 -63.5 -24t-66.5 -14.5t-69 -4.5zM131 298q10 -22 29 -51t47 -58q26 -26 55.5 -47t62.5 -36q28 -12 58 -20.5t62 -12.5t66 -4q91 0 172 37q65 31 121 84q16 15 30.5 32t25.5 31.5t18 25.5t13 21q-14 23 -36 52t-53 58q-56 53 -120 84
q-16 7 -32.5 13t-33.5 10.5t-34 7.5t-35 4.5t-36 1.5q-45 0 -88.5 -9.5t-83.5 -27.5q-33 -15 -63 -36t-58 -48q-53 -51 -87 -112zM625 380l1 -6q0 -13 -6.5 -24t-17.5 -17t-24 -6q-5 0 -9.5 1t-8.5 2.5t-8 4t-7 5.5l-6 8q-3 3 -4.5 7.5t-2.5 9t-1 9.5q0 20 14 33.5t33 13.5
h7q-18 12 -38.5 18t-42.5 6q-60 0 -102.5 -42.5t-42.5 -102.5t42.5 -102.5t102.5 -42.5q24 0 46 7t40 20.5t31.5 31.5t20.5 40t7 46q0 44 -24 80z" />
    <glyph glyph-name="uniE630" unicode="&#xe630;" 
d="M810 672q18 0 33.5 -6.5t27.5 -18.5q11 -12 18 -27.5t7 -32.5v-598q0 -17 -7 -32.5t-18 -27.5q-12 -12 -27.5 -18.5t-33.5 -6.5h-597q-18 0 -33.5 6.5t-26.5 18.5q-12 12 -18.5 27.5t-6.5 32.5v598q0 17 6.5 32.5t18.5 27.5q11 12 26.5 18.5t33.5 6.5h597zM796 -11v598
h-567v-598h64v27h436v-27h67zM304 72h-12v457h437v-457h-425zM332 368h185v-1h-1q-20 -26 -44 -50t-50 -46q-26 -21 -52 -39q-7 -5 -14 -9l-12 -8q-7 -4 -14 -7l-13 -7q5 -5 11 -10.5t12 -11.5l10 -12q5 -5 8 -10q23 13 46.5 28.5t46.5 33.5t45 38.5t42 42.5v-129
q0 -3 -0.5 -5.5t-1.5 -3.5q-2 -1 -4 -1.5t-5 -0.5q-1 -1 -3 -1h-6h-16h-18q-11 1 -22 1q3 -6 6 -13q2 -4 3.5 -7.5t2.5 -7.5q3 -7 5.5 -14.5t3.5 -13.5h30q13 0 24 2q11 1 20 3t17 6q7 3 12 8q2 2 4.5 5t3.5 6q3 7 4.5 16t1.5 20v187v11h94v55h-94v81h-62v-81h-206v-55z" />
    <glyph glyph-name="uniE631" unicode="&#xe631;" 
d="M620 596q-13 101 -227 152q-108 26 -222 30v-546q37 0 178 60q158 68 211 73q60 5 60 -42q0 -111 233 51q90 61 171 131q-8 -1 -22 -3.5t-54 -7t-77 -5.5t-83 2.5t-80 14.5t-59 34t-29 56zM51 812q-14 0 -25.5 -7t-18.5 -18.5t-7 -25.5v-922q0 -21 15 -36t36 -15t36 15
t15 36v922q0 14 -6.5 25.5t-18.5 18.5t-26 7z" />
    <glyph glyph-name="uniE632" unicode="&#xe632;" 
d="M762 387q-35 0 -67 13t-57 38l-62 62q-51 51 -51 123q0 24 6 46t17.5 42t27.5 36l62 62q51 51 124 51q23 0 45.5 -6t42 -17t36.5 -28l62 -62q51 -51 51 -123.5t-51 -123.5l-62 -62q-51 -51 -124 -51zM762 824q-57 0 -98 -41l-62 -62q-19 -19 -29.5 -44.5t-10.5 -53.5
q0 -57 40 -97l62 -62q41 -41 98 -41t98 41l61 62q41 40 41 97.5t-41 97.5l-61 62q-41 41 -98 41zM290 405h-88q-72 0 -123.5 51t-51.5 124v87q0 48 23.5 88t64 63.5t87.5 23.5h88q47 0 87.5 -23.5t64 -63.5t23.5 -88v-87q0 -73 -51.5 -124t-123.5 -51zM202 805
q-57 0 -97.5 -40.5t-40.5 -97.5v-87q0 -57 40.5 -98t97.5 -41h88q37 0 69 19t50.5 50.5t18.5 69.5v87q0 57 -40.5 97.5t-97.5 40.5h-88zM806 -100h-88q-72 0 -123.5 51t-51.5 124v87q0 72 51.5 123.5t123.5 51.5h88q72 0 123.5 -51.5t51.5 -123.5v-87q0 -73 -51.5 -124
t-123.5 -51zM718 300q-57 0 -97.5 -40.5t-40.5 -97.5v-87q0 -38 18.5 -70t50.5 -50.5t69 -18.5h88q57 0 97.5 41t40.5 98v87q0 38 -18.5 69.5t-50.5 50t-69 18.5h-88zM290 -100h-88q-72 0 -123.5 51t-51.5 124v87q0 36 14 68t37.5 55.5t56 37.5t67.5 14h88q72 0 123.5 -51.5
t51.5 -123.5v-87q0 -73 -51.5 -124t-123.5 -51zM202 300q-28 0 -53.5 -11t-44 -29.5t-29.5 -44t-11 -53.5v-87q0 -28 11 -54t29.5 -44.5t44 -29.5t53.5 -11h88q57 0 97.5 41t40.5 98v87q0 38 -18.5 69.5t-50.5 50t-69 18.5h-88z" />
  </font>
</defs>
</svg>
